<svg width="44" height="51" viewBox="0 0 44 51" fill="none" xmlns="http://www.w3.org/2000/svg">
<path d="M22 50.9999C21.4387 51.0036 20.8901 50.8546 20.4306 50.5736C19.9711 50.2927 19.6236 49.8938 19.4365 49.4326C16.567 42.5382 5.86349 32.2175 5.7487 32.1091L5.68175 32.0341C2.82659 29.2821 0.948879 25.8672 0.276313 22.2035C-0.396254 18.5398 0.165212 14.7848 1.89263 11.3937C3.62005 8.00266 6.43922 5.12122 10.0083 3.09884C13.5773 1.07646 17.7429 0 22 0C26.2571 0 30.4227 1.07646 33.9917 3.09884C37.5608 5.12122 40.3799 8.00266 42.1074 11.3937C43.8348 14.7848 44.3963 18.5398 43.7237 22.2035C43.0511 25.8672 41.1734 29.2821 38.3183 32.0341L38.2513 32.1091C38.1365 32.2175 27.433 42.5382 24.5635 49.4326C24.3776 49.8945 24.0304 50.2941 23.5706 50.5752C23.1109 50.8563 22.5616 51.0048 22 50.9999Z" fill="#BE2E28"/>
<path d="M42 19.1988C42 14.5655 39.8929 10.1219 36.1421 6.84567C32.3914 3.56941 27.3043 1.72882 22 1.72882C16.6957 1.72882 11.6086 3.56941 7.85786 6.84567C4.10714 10.1219 2 14.5655 2 19.1988C2.00015 23.5557 3.87292 27.7537 7.24761 30.962C7.24761 30.962 18.2286 41.5189 21.2571 48.798C21.311 48.9361 21.413 49.0559 21.5488 49.1407C21.6846 49.2256 21.8473 49.2712 22.0143 49.2712C22.1812 49.2712 22.344 49.2256 22.4797 49.1407C22.6155 49.0559 22.7175 48.9361 22.7714 48.798C25.8 41.5189 36.7714 30.962 36.7714 30.962C40.14 27.7517 42.006 23.5536 42 19.1988Z" fill="#F65751"/>
<path fill-rule="evenodd" clip-rule="evenodd" d="M31.8556 15.1815L31.8685 15.1901C32.4713 15.592 32.8333 16.2685 32.8333 16.9929V25.5833C32.8333 26.1816 32.3483 26.6667 31.75 26.6667H30.6667C30.0684 26.6667 29.5833 26.1816 29.5833 25.5833V24.5H14.4167V25.5833C14.4167 26.1816 13.9316 26.6667 13.3333 26.6667H12.25C11.6517 26.6667 11.1667 26.1816 11.1667 25.5833V16.9929C11.1667 16.2685 11.5287 15.592 12.1315 15.1901L12.1444 15.1815C11.7496 14.9534 11.392 14.7294 11.3225 14.6296C11.155 14.3889 11.078 13.6667 11.3225 13.6667H13.3333L14.6017 11.1299C15.1522 10.0288 16.2776 9.33333 17.5086 9.33333H26.4914C27.7224 9.33333 28.8478 10.0288 29.3983 11.1299L30.6667 13.6667H32.6775C32.922 13.6667 32.845 14.3889 32.6775 14.6296C32.608 14.7294 32.2504 14.9534 31.8556 15.1815ZM28.3895 11.5637L30.2418 15.0368C30.4343 15.3976 30.1728 15.8333 29.7639 15.8333H14.2361C13.8272 15.8333 13.5657 15.3976 13.7582 15.0368L15.6105 11.5637C15.987 10.8577 16.722 10.4167 17.5222 10.4167H26.4778C27.2779 10.4167 28.013 10.8577 28.3895 11.5637ZM31.75 19.1699V17.8597C31.75 17.4417 31.2965 17.1812 30.9354 17.3918L27.3183 19.5018C26.8199 19.7926 27.0611 20.5574 27.6362 20.5095L30.7566 20.2494C31.3181 20.2027 31.75 19.7333 31.75 19.1699ZM12.25 17.8597V19.1699C12.25 19.7333 12.6819 20.2027 13.2434 20.2494L16.3637 20.5095C16.9388 20.5574 17.1801 19.7926 16.6817 19.5018L13.0646 17.3918C12.7035 17.1812 12.25 17.4417 12.25 17.8597Z" fill="white"/>
</svg>
